<?xml version="1.0" standalone="no"?>
<!DOCTYPE svg PUBLIC "-//W3C//DTD SVG 1.1//EN"
"http://www.w3.org/Graphics/SVG/1.1/DTD/svg11.dtd">
<svg width="800" height="600" version="1.1" xmlns="http://www.w3.org/2000/svg"><g><rect x="0" y="0" width="800" height="600" fill="#f9f9f9" /><g transform="translate(40 40)"><g transform="translate(48 0)"><text x="0" y="0" fill="#333" font-family="Monaco" font-size="16">Bars</text></g><g transform="translate(0 20)"><g transform="translate(48 0)"><g class="axis bottom"><g class="tick"><line x1="168.00" y1="0" x2="168.00" y2="482.0" stroke="#eee" stroke-width="1" /><text x="168.00" y="486.0" dy="1em" fill="#9c9c9c" text-anchor="middle" font-family="Monaco">20</text></g><g class="tick"><line x1="336.0" y1="0" x2="336.0" y2="482.0" stroke="#eee" stroke-width="1" /><text x="336.0" y="486.0" dy="1em" fill="#9c9c9c" text-anchor="middle" font-family="Monaco">40</text></g><g class="tick"><line x1="504.00" y1="0" x2="504.00" y2="482.0" stroke="#eee" stroke-width="1" /><text x="504.00" y="486.0" dy="1em" fill="#9c9c9c" text-anchor="middle" font-family="Monaco">60</text></g><g class="tick"><line x1="672" y1="0" x2="672" y2="482.0" stroke="#eee" stroke-width="1" /><text x="672" y="486.0" dy="1em" fill="#9c9c9c" text-anchor="middle" font-family="Monaco">80</text></g><g class="tick"><line x1="0" y1="0" x2="0" y2="482.0" stroke="#a8a8a8" stroke-width="1" /><text x="0" y="486.0" dy="1em" fill="#9c9c9c" text-anchor="middle" font-family="Monaco">0</text></g></g><g class="axis left"><g class="tick"><line x1="-4" y1="454.1" x2="672.0" y2="454.1" stroke="#eee" stroke-width="1" /><text x="-8" y="454.1" dy="0.32em" fill="#9c9c9c" text-anchor="end" font-family="Monaco">truck</text></g><g class="tick"><line x1="-4" y1="406.3" x2="672.0" y2="406.3" stroke="#eee" stroke-width="1" /><text x="-8" y="406.3" dy="0.32em" fill="#9c9c9c" text-anchor="end" font-family="Monaco">ship</text></g><g class="tick"><line x1="-4" y1="358.5" x2="672.0" y2="358.5" stroke="#eee" stroke-width="1" /><text x="-8" y="358.5" dy="0.32em" fill="#9c9c9c" text-anchor="end" font-family="Monaco">horse</text></g><g class="tick"><line x1="-4" y1="310.7" x2="672.0" y2="310.7" stroke="#eee" stroke-width="1" /><text x="-8" y="310.7" dy="0.32em" fill="#9c9c9c" text-anchor="end" font-family="Monaco">frog</text></g><g class="tick"><line x1="-4" y1="262.9" x2="672.0" y2="262.9" stroke="#eee" stroke-width="1" /><text x="-8" y="262.9" dy="0.32em" fill="#9c9c9c" text-anchor="end" font-family="Monaco">dog</text></g><g class="tick"><line x1="-4" y1="215.1" x2="672.0" y2="215.1" stroke="#eee" stroke-width="1" /><text x="-8" y="215.1" dy="0.32em" fill="#9c9c9c" text-anchor="end" font-family="Monaco">deer</text></g><g class="tick"><line x1="-4" y1="167.3" x2="672.0" y2="167.3" stroke="#eee" stroke-width="1" /><text x="-8" y="167.3" dy="0.32em" fill="#9c9c9c" text-anchor="end" font-family="Monaco">cat</text></g><g class="tick"><line x1="-4" y1="119.5" x2="672.0" y2="119.5" stroke="#eee" stroke-width="1" /><text x="-8" y="119.5" dy="0.32em" fill="#9c9c9c" text-anchor="end" font-family="Monaco">bird</text></g><g class="tick"><line x1="-4" y1="71.7" x2="672.0" y2="71.7" stroke="#eee" stroke-width="1" /><text x="-8" y="71.7" dy="0.32em" fill="#9c9c9c" text-anchor="end" font-family="Monaco">car</text></g><g class="tick"><line x1="-4" y1="23.9" x2="672.0" y2="23.9" stroke="#eee" stroke-width="1" /><text x="-8" y="23.9" dy="0.32em" fill="#9c9c9c" text-anchor="end" font-family="Monaco">plane</text></g></g><g><g class="series bars"><rect x="0" y="432.59" width="521.6400000000000119371179608" height="43.02" fill="#e41a1c" /><rect x="0" y="384.79" width="557.7600000000000477484718431" height="43.02" fill="#e41a1c" /><rect x="0" y="336.99" width="580.4399999999999522515281569" height="43.02" fill="#e41a1c" /><rect x="0" y="289.19" width="582.1199999999999761257640785" height="43.02" fill="#e41a1c" /><rect x="0" y="241.39" width="386.400" height="43.02" fill="#e41a1c" /><rect x="0" y="193.59" width="345.2400000000000119371179608" height="43.02" fill="#e41a1c" /><rect x="0" y="145.79" width="318.3599999999999880628820392" height="43.02" fill="#e41a1c" /><rect x="0" y="97.99" width="377.1599999999999880628820392" height="43.02" fill="#e41a1c" /><rect x="0" y="50.19" width="664.4399999999999522515281569" height="43.02" fill="#e41a1c" /><rect x="0" y="2.39" width="536.7599999999999880628820392" height="43.02" fill="#e41a1c" /></g></g></g></g></g></g></svg>